<?xml version="1.0" encoding="UTF-8" standalone="no"?>
<svg
   id="Layer_1"
   style="enable-background:new 0 0 50 50;"
   version="1.1"
   viewBox="0 0 50 50"
   xml:space="preserve"
   sodipodi:docname="web.svg"
   inkscape:version="1.1.1 (3bf5ae0d25, 2021-09-20)"
   xmlns:inkscape="http://www.inkscape.org/namespaces/inkscape"
   xmlns:sodipodi="http://sodipodi.sourceforge.net/DTD/sodipodi-0.dtd"
   xmlns="http://www.w3.org/2000/svg"
   xmlns:svg="http://www.w3.org/2000/svg"><defs
     id="defs4646" /><sodipodi:namedview
     id="namedview4644"
     pagecolor="#505050"
     bordercolor="#ffffff"
     borderopacity="1"
     inkscape:pageshadow="0"
     inkscape:pageopacity="0"
     inkscape:pagecheckerboard="1"
     showgrid="false"
     inkscape:zoom="17.16"
     inkscape:cx="25.029138"
     inkscape:cy="25.029138"
     inkscape:window-width="1920"
     inkscape:window-height="1017"
     inkscape:window-x="1272"
     inkscape:window-y="-8"
     inkscape:window-maximized="1"
     inkscape:current-layer="Layer_1" /><style
     type="text/css"
     id="style4575">
	.st0{fill:#B7C5FD;}
	.st1{fill:#9AADFD;}
	.st2{fill:#FFFFFF;}
	.st3{fill:#3955D1;}
	.st4{fill:#4466FB;}
	.st5{fill:#AABAFD;}
	.st6{fill:#798FFE;}
	.st7{fill:#6BB5FB;}
	.st8{enable-background:new    ;}
	.st9{fill:#1B2A4F;}
	.st10{fill:url(#);}
	.st11{fill:#384E85;}
	.st12{fill:#2E4277;}
	.st13{fill:#D9DDF6;}
	.st14{fill:#535D88;}
	.st15{fill:#2B3C67;}
	.st16{fill:#8FCCFF;}
	.st17{fill:#8CA1FD;}
	.st18{opacity:0.3;}
	.st19{opacity:0.3;fill:#4466FB;}
	.st20{opacity:0.2;}
</style><circle
     class="st4"
     cx="26.36031"
     cy="24.99976"
     r="18.00618"
     id="circle4577" /><path
     class="st7"
     d="m 36.23479,9.9403 c -0.4351,0.02543 -0.48549,0.29306 -0.35616,1.20074 -0.59087,-0.14071 -1.16838,0.40149 -1.77065,0.05003 -0.03449,-0.01861 -0.10509,-0.0033 -0.1397,-0.0044 -0.58141,0.10461 -0.59838,0.08655 -0.47311,-0.55782 0.02133,-0.12164 0.0777,-0.24261 0.08097,-0.3477 0.0043,-0.1397 0.0093,-0.29734 -0.02141,-0.43856 L 33.48467,9.84046 c -0.1012,0.43473 -0.44556,0.8093 -0.30429,1.33925 -0.0016,0.05255 -0.11162,0.20649 -0.16417,0.20485 -0.42104,0.02195 -0.75942,0.20427 -0.93124,0.65434 -0.03612,0.03394 -0.09085,0.10236 -0.12588,0.10128 -0.31649,0.04274 -0.54965,0.21037 -0.63062,0.5585 -0.01926,0.0691 -0.16047,0.09977 -0.23217,0.15013 -0.12424,0.04873 -0.21456,0.13358 -0.32086,0.18286 -0.10673,0.04927 -0.23097,0.09757 -0.3377,0.14685 -0.12436,0.06625 -0.21358,0.11607 -0.33837,0.18232 0.06733,0.08976 0.13357,0.21455 0.21898,0.28692 0.18843,0.1286 0.39588,0.22272 0.54917,0.36734 0.18624,0.19866 0.2022,0.81194 0.0051,0.9636 -0.12534,0.08376 -0.35032,-0.01091 -0.50644,-0.05085 -0.29669,-0.04388 -0.55573,-0.15714 -0.83554,-0.16587 -0.3328,-0.01036 -0.51735,0.29905 -0.38691,0.60074 0.08049,0.23043 0.09202,0.42322 -0.03769,0.64711 -0.16702,0.30995 -0.09841,0.90778 0.11014,0.96687 0.27699,0.1134 0.55464,0.19218 0.83337,0.23593 0.24358,0.06018 0.47358,-0.02031 0.56989,-0.29741 0.26496,-0.64003 0.69854,-1.06441 1.25255,-1.41491 0.05364,-0.03339 0.12533,-0.08376 0.16091,-0.10018 -0.11771,-0.16104 -0.1834,-0.30334 -0.26771,-0.41117 0.17625,-0.02957 0.31583,-0.0077 0.45334,0.06672 0.25946,0.11328 0.50262,0.17345 0.6717,-0.18904 0.05856,-0.19103 0.21576,-0.18614 0.33347,-0.02468 0.04984,0.08879 0.13468,0.1791 0.14838,0.30225 0.10844,0.4588 0.4359,0.62679 0.74422,0.84636 0.1374,0.09194 0.30831,0.22 0.35596,0.37885 0.04873,0.12425 0.02413,0.35098 -0.03224,0.47195 -0.05528,0.08594 -0.23,0.0805 -0.37177,0.12867 l -0.21019,-0.0065 c -5.5e-4,0.01752 -0.01872,0.05201 -0.01928,0.06953 0.10194,0.09084 0.21965,0.25187 0.34336,0.22066 0.31595,-0.02523 0.54139,-0.50826 0.5409,-1.0689 0.12151,0.03885 0.22606,0.05964 0.34705,0.11558 0.01804,-0.01654 0.0372,-0.06854 0.05526,-0.08552 -0.22171,-0.19976 -0.46159,-0.36503 -0.66523,-0.58134 -0.28972,-0.25406 -0.61718,-0.42205 -0.61997,-0.89509 -0.03067,-0.14122 -0.14674,-0.3548 0.0826,-0.40025 0.19333,-0.02904 0.43801,-0.0039 0.42874,0.29346 0.0013,0.50806 0.31219,0.65801 0.63967,0.82558 0.13848,0.05691 0.27655,0.11381 0.36086,0.22163 0.08485,0.09031 0.15,0.25013 0.12977,0.33674 -0.11436,0.29406 -0.05084,0.50644 0.09982,0.72152 0.06734,0.08933 0.11662,0.19606 0.14892,0.28473 0.06624,0.12479 0.09692,0.26558 0.12814,0.38928 0.10836,-0.10182 0.21522,-0.16862 0.32357,-0.27002 0.03613,-0.03394 0.07225,-0.06788 0.09085,-0.10236 0.16255,-0.15273 0.18344,-0.27438 -0.0044,-0.4205 -0.11988,-0.0914 -0.18517,-0.23326 -0.28699,-0.34164 0.28747,-0.2365 0.53171,-0.21136 0.79226,-0.13311 0.19159,0.04104 0.4194,0.0306 0.56281,-0.07013 0.05321,-0.03341 -0.02413,-0.35098 -0.01813,-0.54365 -0.01207,-0.17528 -0.05807,-0.3871 0.01635,-0.52462 0.07769,-0.24304 0.22393,-0.44845 0.352,-0.61978 0.12752,-0.15382 0.30824,-0.34062 0.37775,-0.32093 0.19049,0.07607 0.3242,0.27267 0.44135,0.45164 0.10291,0.07334 0.14947,0.26722 0.25456,0.2705 0.12164,0.02132 0.28255,-0.07886 0.42388,-0.12663 0.0016,-0.05255 -0.01491,-0.07059 -0.01381,-0.10562 -0.17297,-0.07552 -0.32898,-0.13298 -0.50153,-0.20848 l 0.0033,-0.10467 c 0.42377,-0.10952 0.84809,-0.23657 1.27239,-0.36319 -0.0766,0.20758 -0.18551,0.32692 -0.29508,0.48087 -0.21945,0.29079 -0.22327,0.4134 0.03194,0.64928 0.15383,0.12709 0.34324,0.23819 0.45996,0.41715 0.08378,0.12491 0.11171,0.35371 0.07176,0.51026 -0.02078,0.10455 -0.23423,0.20267 -0.35642,0.19886 -0.20964,-0.02407 -0.43474,-0.10121 -0.60663,-0.21133 -0.39479,-0.25776 -0.78025,-0.25223 -1.15475,-0.03598 -0.31921,0.12989 -0.60383,0.26129 -0.90608,0.40966 -0.0717,0.05036 -0.19649,0.1166 -0.19865,0.18624 0.09528,0.31813 0.15497,0.65311 0.30335,0.95536 0.03231,0.08867 0.32747,0.168 0.38165,0.11708 0.19934,-0.22172 0.30117,-0.11334 0.45443,0.03169 0.18517,0.23327 0.35978,0.25624 0.55856,0.05247 0.05473,-0.06843 0.10783,-0.0843 0.12589,-0.10128 0.09855,0.21347 0.16262,0.40789 0.28086,0.55183 0.16819,0.21521 0.16437,0.33782 -0.05138,0.52353 -0.14341,0.10073 -0.29007,0.30656 -0.29498,0.46376 0.0077,0.31583 -0.09795,0.33007 -0.28964,0.30656 -0.2611,-0.06072 -0.55681,-0.12254 -0.80269,-0.09514 -0.68596,0.08383 -1.2756,-0.10987 -1.85884,-0.4958 -0.11989,-0.09139 -0.32801,-0.15047 -0.40079,-0.06508 -0.10727,0.06679 -0.11436,0.29407 -0.10176,0.45226 0.04165,0.35152 -0.04921,0.45389 -0.34217,0.30449 -0.37839,-0.22175 -0.75609,-0.47897 -1.11642,-0.7177 -0.3603,-0.23915 -0.5608,-0.54302 -0.42292,-1.02921 0.06193,-0.31324 -0.10789,-0.47632 -0.40675,-0.45057 -0.17527,0.01207 -0.36958,0.05862 -0.52516,0.0012 -0.5902,-0.17618 -1.11743,-0.12247 -1.6709,0.21094 -0.30387,0.2005 -0.64061,0.33027 -1.01897,0.10809 -0.03449,-0.01861 -0.19541,0.08157 -0.26819,0.16697 -0.18127,0.20432 -0.36242,0.39153 -0.52769,0.63142 -0.11068,0.18941 -0.25843,0.42984 -0.24691,0.62305 0.02194,0.42105 -0.07489,0.71566 -0.3963,0.91603 -0.48231,0.30014 -0.76043,0.7995 -0.98697,1.318 -0.07387,0.12 -0.11327,0.25903 -0.1866,0.36194 -0.21793,0.25577 -0.22776,0.57106 -0.09787,0.89026 0.12758,0.4068 0.11505,0.80923 -0.02076,1.24289 -0.0777,0.24262 -0.14059,0.57335 -0.02399,0.76984 0.24868,0.44564 0.46233,0.89018 0.56858,1.41904 0.01534,0.07061 0.04818,0.14176 0.09911,0.19552 0.28807,0.30703 0.55808,0.6306 0.86463,0.92068 0.23771,0.2349 0.5136,0.38376 0.81803,0.16532 0.32193,-0.21747 0.69043,-0.24106 1.06001,-0.29967 0.15764,0.0049 0.29886,-0.02576 0.42474,-0.12703 0.32248,-0.23499 0.61711,-0.13857 0.88984,0.09785 0.17024,0.1631 0.30001,0.49983 0.62086,0.3174 0.01807,-0.01741 0.08703,0.01981 0.12043,0.07345 0.27327,0.21891 0.36257,0.72928 0.19456,1.05717 -0.20587,0.43147 -0.2332,0.74578 0.02094,1.01627 0.27054,0.30648 0.47092,0.62789 0.49287,1.04892 0.01316,0.14067 0.0783,0.30049 0.14457,0.42487 0.31001,0.72806 0.34021,1.447 -0.06597,2.11726 -0.2966,0.51631 -0.32993,1.0233 -0.06712,1.59211 0.22789,0.55018 0.38506,1.1328 0.41907,1.72955 0.02031,0.47358 0.12832,0.93237 0.30845,1.34081 0.23117,0.44509 0.37463,0.90498 0.30574,1.42797 -0.04704,0.38425 0.05478,0.49261 0.38881,0.44999 0.45607,-0.02085 0.89626,-0.09438 1.33645,-0.16832 0.07061,-0.01534 0.16037,-0.08267 0.23206,-0.13303 0.68273,-0.55646 1.22849,-1.20527 1.27708,-2.20226 0.02624,-0.27929 0.15212,-0.38056 0.36406,-0.44366 0.10728,-0.06679 0.2337,-0.18558 0.27158,-0.2896 0.09629,-0.27708 0.06944,-0.54049 -0.07905,-0.82563 -0.04872,-0.12425 -0.05807,-0.38711 -0.0022,-0.49056 0.20097,-0.27384 0.43684,-0.52905 0.7057,-0.73107 0.57371,-0.42002 0.90267,-1.4258 0.71471,-2.13211 -0.14456,-0.42487 -0.18348,-0.86396 -0.27439,-1.32222 -0.16988,-0.72371 0.19416,-1.16736 0.67976,-1.57302 0.35915,-0.28643 0.73637,-0.58984 0.97661,-0.98518 0.44012,-0.63457 0.8129,-1.35847 1.18461,-2.04777 0.09302,-0.172 0.10011,-0.39971 0.15864,-0.59031 -0.19267,-0.006 -0.38491,-0.01199 -0.54419,0.03564 -0.35152,0.04165 -0.68825,0.17099 -1.02269,0.21317 -0.0877,0.0148 -0.20704,-0.09368 -0.27383,-0.20096 C 40.16759,25.27 39.98626,24.91369 39.78697,24.55726 39.75521,24.45107 39.68831,24.36133 39.6215,24.25448 39.50763,23.9704 39.37676,23.6687 39.28135,23.3681 c -0.17468,-0.5836 -0.33239,-1.14913 -0.50664,-1.73271 -0.07995,-0.24752 -0.12487,-0.49395 -0.20438,-0.74188 -0.09801,-0.23055 -0.19601,-0.46153 -0.31155,-0.69262 0.12371,-0.03121 0.19268,0.006 0.22607,0.05964 0.31712,0.49994 0.61616,1.01728 0.93314,1.53518 0.05049,0.05417 0.0297,0.15872 0.04393,0.26435 0.06517,0.1594 0.07777,0.31759 0.12543,0.47644 0.34504,0.72916 0.76179,1.40753 0.78708,2.2841 -0.0071,0.2277 0.12975,0.33716 0.37837,0.22217 0.19594,-0.09909 0.42486,-0.14456 0.62079,-0.24322 0.31923,-0.13032 0.62202,-0.29621 0.92632,-0.4967 0.28583,-0.18395 0.57382,-0.43754 0.87759,-0.62094 0.42867,-0.26674 0.686,-0.66155 0.82442,-1.16525 0.0394,-0.13904 -0.07613,-0.37014 -0.14128,-0.52996 -0.06581,-0.12478 -0.22127,-0.19975 -0.32311,-0.30769 -0.20321,-0.21672 -0.39425,-0.27527 -0.64668,-0.03768 -0.21618,0.1857 -0.48066,0.24759 -0.69856,-0.07436 -0.01588,-0.0531 -0.10346,-0.05582 -0.13698,-0.09194 -0.05025,-0.0888 -0.1511,-0.21467 -0.1314,-0.28419 0.11491,-0.31157 0.01691,-0.54256 -0.16923,-0.75832 -0.08485,-0.0903 -0.18624,-0.19867 -0.23497,-0.32291 -0.03175,-0.10618 -0.02632,-0.28091 0.01144,-0.3674 0.05528,-0.08595 0.21249,-0.08105 0.33401,-0.04219 0.27819,0.06127 0.37455,0.34479 0.47202,0.59285 0.22625,0.60274 0.36419,0.67716 0.92863,0.55448 0.08867,-0.0323 0.22781,-0.01043 0.27819,0.06084 0.13454,0.21296 0.28824,0.36607 0.45769,0.46791 -0.97442,-4.76917 -3.83427,-8.85194 -7.7669,-11.4358 z"
     id="path4579"
     style="fill:#fbcb6b;fill-opacity:1" /><g
     id="g4583"
     style="fill:#fbcb6b;fill-opacity:1"><path
       class="st7"
       d="m 9.46444,26.62827 c 0.43072,0.0098 0.60354,0.1201 0.76122,0.4944 0.03324,0.06971 0.13783,0.12773 0.22836,0.18772 0.05527,0.04086 0.15799,0.03591 0.20272,0.09083 0.19747,0.22887 0.48545,0.14156 0.71424,0.21347 0.07183,-0.11142 0.11599,-0.21795 0.16069,-0.32437 0.40274,0.27667 0.64451,0.73527 0.57194,1.07083 -0.07364,0.33504 -0.14564,0.66006 -0.18499,0.98053 -0.0061,0.11388 0.08596,0.24554 0.13218,0.37403 0.01683,0.04675 0.0785,0.13416 0.04918,0.17819 -0.07902,0.27977 -0.01284,0.49385 0.29333,0.61645 0.54278,0.22244 0.85445,0.61532 1.15904,1.03466 0.24611,0.31964 0.50693,0.58464 0.96721,0.60775 0.49349,0.02771 0.7192,0.18143 0.89621,0.57444 0.12286,0.28164 0.21654,0.55893 0.33994,0.85424 0.16759,0.40938 0.30381,0.83007 0.53761,1.21053 0.1699,0.29605 0.27105,0.57483 0.36893,0.89475 0.13017,0.45238 0.33307,0.92482 0.56805,1.3752 0.037,0.07999 0.18305,0.15069 0.27443,0.21278 0.05006,0.04945 0.07332,0.10783 0.1027,0.15065 0.07074,0.17504 0.16154,0.33004 0.2563,0.51056 0.09603,0.20704 0.28035,0.43741 -0.10303,0.53154 0.30474,0.02811 0.45118,0.13676 0.52758,0.35224 -0.0051,0.01568 0.01858,0.0474 0.04783,0.06394 0.3349,0.17648 0.34823,0.34724 0.1296,0.48212 0.26435,0.18909 0.54057,0.34545 0.80943,0.53086 0.22585,0.1744 0.46454,0.23384 0.75141,0.20469 0.24751,-0.01393 0.48448,0.0018 0.45035,-0.2705 8e-4,-0.04112 0.10522,-0.08167 0.14912,-0.11231 0.06163,-0.0511 0.11866,-0.08681 0.18066,-0.13762 -0.15123,0.0047 -0.23486,0.0502 -0.35149,0.05494 -0.09508,0.0096 -0.24662,0.01366 -0.29324,-0.0228 -0.25371,-0.18739 -0.48427,-0.37081 -0.71504,-0.58151 -0.01612,-0.02096 -0.02504,-0.09851 0.0038,-0.14946 0.04067,-0.18972 0.08355,-0.37885 0.15649,-0.55129 0.06521,-0.1832 -0.07036,-0.25294 -0.2648,-0.28918 -0.18091,-0.0413 -0.36978,-0.09354 -0.59981,-0.15839 0.06442,-0.04914 0.08177,-0.09492 0.12183,-0.10894 0.30968,-0.26724 0.32309,-0.45501 0.06814,-0.84963 -0.04356,-0.06341 -0.02865,-0.21151 0.04482,-0.24922 0.22431,-0.17961 0.10485,-0.33225 -0.06044,-0.50883 -0.04821,-0.04837 -0.08285,-0.10125 -0.1444,-0.17096 0.35812,-0.05279 0.70677,-0.06778 0.69255,-0.44373 0.0067,-0.29399 -0.04259,-0.52785 -0.48845,-0.67616 0.28362,-0.06427 0.5191,-0.1015 0.76879,-0.16901 -0.18938,-0.1766 -0.21638,-0.32996 -0.03833,-0.4352 0.06258,-0.05684 0.07969,-0.1361 0.10299,-0.20541 0.15763,-0.35748 0.0403,-0.69916 -0.15525,-1.05439 -0.11701,-0.18398 -0.05606,-0.33526 0.09652,-0.46378 0.18757,-0.15109 0.38934,-0.30564 0.55417,-0.47216 0.09857,-0.1119 0.13533,-0.25279 0.1354,-0.40659 0.0407,-0.16532 -0.0059,-0.35221 0.04324,-0.50669 0.06647,-0.18262 0.14268,-0.37791 -0.01856,-0.55535 -0.35521,-0.39284 -0.32253,-0.77401 -0.0588,-1.16141 0.0428,-0.07932 0.09532,-0.17263 0.11623,-0.26909 0.102,-0.23064 0.04786,-0.4768 -0.17964,-0.59163 -0.46862,-0.26053 -0.96506,-0.41923 -1.51514,-0.3524 -0.30087,0.04513 -0.57988,0.02726 -0.86147,-0.08425 -0.22771,-0.0886 -0.49439,-0.20572 -0.75725,-0.0096 0.03919,-0.40476 -0.14773,-0.70054 -0.44792,-0.94264 C 16.6706,27.14462 16.50995,27.06018 16.4148,27.0904 15.82637,27.26463 15.31207,27.00019 14.78684,26.8235 14.74117,26.82 14.71093,26.76624 14.69825,26.72116 14.5455,26.44124 14.4462,26.39912 14.15771,26.59231 c -0.27354,0.19117 -0.5579,0.0745 -0.83126,0.04907 -0.13992,-0.02372 -0.2687,-0.06205 -0.38023,-0.09149 0.03369,0.1271 0.05408,0.25625 0.08929,0.38291 0.0033,0.01182 -0.0081,0.02562 0.0016,0.06024 -0.05955,-0.0017 -0.14462,0.0132 -0.151,-0.01 -0.05243,-0.1886 -0.10314,-0.37743 -0.15206,-0.56649 -0.3302,0.32047 -0.70246,0.54207 -0.71795,1.01157 -0.40083,-0.26171 -0.40345,-0.27573 -0.81137,-0.03256 -0.13613,0.0977 -0.24141,0.04124 -0.35903,-0.06349 -0.32335,-0.25693 -0.36,-0.62516 -0.44372,-0.97182 C 10.32722,25.98723 10.26119,25.94736 9.893,26.07612 9.83634,26.08446 9.79644,26.10276 9.76794,26.10697 9.66542,26.10955 9.56294,26.112 9.4632,26.12649 9.45554,26.0273 9.44778,25.92851 9.44364,25.8415 c 0.01841,-0.3152 0.04148,-0.63 0.06668,-0.95632 -0.44395,0.0451 -0.54339,0.14487 -0.56213,0.48611 0.00257,0.08717 -0.00913,0.23959 -0.06358,0.25965 -0.16519,0.06767 -0.33579,0.18202 -0.51184,0.18731 0.0065,0.14529 0.01471,0.29014 0.02463,0.43451 0.1917,0.02498 0.36822,0.10802 0.55599,0.21237 0.15131,0.07887 0.33119,0.15244 0.51105,0.16314 z"
       id="path4581"
       style="fill:#fbcb6b;fill-opacity:1" /></g><g
     class="st18"
     id="g4587"><path
       class="st11"
       d="m 36.37003,10.03371 c 2.89313,3.19482 4.67053,7.41889 4.67053,12.06848 0,9.94458 -8.06158,18.00616 -18.00616,18.00616 -3.70502,0 -7.14691,-1.12158 -10.0097,-3.0401 3.29468,3.63824 8.04071,5.93768 13.33563,5.93768 9.94452,0 18.00616,-8.06165 18.00616,-18.00616 0,-6.2395 -3.17535,-11.73517 -7.99646,-14.96606 z"
       id="path4585" /></g><g
     id="g4591"
     style="fill:#fbcb6b;fill-opacity:1"><path
       class="st7"
       d="m 8.47893,23.20046 c 0.3446,-0.46021 0.37433,-0.4591 0.97023,-0.21301 0.0922,0.03978 0.22082,0.02602 0.30446,0.0045 0.15241,-0.05278 0.21746,0.0015 0.23605,0.1342 0.03866,0.06877 0.02231,0.1565 0.06319,0.23791 0.08885,0.30854 0.27658,0.46988 0.58549,0.49292 -0.11486,-0.2539 -0.22267,-0.48549 -0.31708,-0.7431 -0.04238,-0.09293 -0.07138,-0.19962 -0.06989,-0.29702 0.02379,-0.36839 0.19145,-0.67693 0.49664,-0.92377 0.27694,-0.24385 0.32453,-0.48734 0.18289,-0.81112 -0.03606,-0.09293 -0.06988,-0.16208 -0.12007,-0.25427 0.08104,-0.06654 0.1643,-0.10966 0.23159,-0.17509 0.26877,-0.26096 0.584,-0.49961 0.79998,-0.77581 0.20185,-0.26282 0.42489,-0.43159 0.74905,-0.57062 0.0316,0.10297 0.0632,0.18252 0.10967,0.26096 0.08549,-0.0059 0.20036,0.0085 0.25612,-0.03049 0.27992,-0.14869 0.53159,-0.29404 0.79812,-0.45092 0.14015,-0.09033 0.16505,-0.22936 0.0342,-0.35835 -0.04237,0.02566 -0.08475,0.03978 -0.12676,0.07732 -0.35055,0.25353 -0.50928,0.23122 -0.68697,-0.12974 C 12.96096,18.60614 12.9171,18.52734 12.93123,18.46823 13,18.15077 12.78885,18.03479 12.47585,18.01509 c -0.0145,7.4e-4 -0.01413,-0.02268 -0.04201,-0.07992 0.27025,-0.01339 0.51225,-0.03681 0.76839,-0.0383 0.24199,-0.01226 0.49775,0.0089 0.76838,0.0056 -0.0041,-0.09405 0.0085,-0.17286 0.03941,-0.23791 0.27285,-0.0342 0.58065,-0.10557 0.77804,-0.30185 0.03717,-0.03717 0.37211,-0.71894 0.16244,-0.69143 0.41003,-0.05391 0.82005,-0.10781 1.23045,-0.16171 0.13717,-0.01822 0.28884,-0.04424 0.37397,-0.15316 0.06096,-0.07806 0.07397,-0.18215 0.08364,-0.28103 0.05278,-0.55314 0.07174,-1.12748 0.20594,-1.66129 0.10706,-0.17137 0.21077,-0.34311 0.30482,-0.52303 0.12639,-0.20892 0.22416,-0.29627 0.47211,-0.25315 0.23382,0.04312 0.41523,-0.04498 0.61894,-0.18512 0.2368,-0.17286 0.49664,-0.30111 0.78102,-0.40705 0.3762,-0.14795 0.77098,-0.23085 1.15834,-0.35501 0.10409,-0.03086 0.23977,-0.08216 0.2472,-0.12379 0.04052,-0.22973 0.22193,-0.21709 0.43456,-0.22565 0.01711,-0.24906 0.03569,-0.48771 0.05279,-0.70593 0.06431,-0.04015 0.13791,-0.12193 0.22118,-0.18215 0.1855,-0.14126 0.4223,-0.25873 0.40148,-0.4762 -0.04833,-0.21858 -0.0082,-0.38363 0.3985,-0.4301 -0.21933,-0.142 -0.38883,-0.25278 -0.56913,-0.37583 C 21.98674,9.84467 22.55289,9.5339 23.10492,9.23949 22.85735,9.07295 21.89938,9.06217 21.50571,9.24804 21.26185,9.35882 21.2336,9.3577 21.11093,9.2447 21.36705,9.09154 21.60459,8.95995 21.86221,8.80977 21.43843,8.6239 21.03806,8.45588 20.63994,8.28414 20.62135,8.28265 20.60314,8.28116 20.58455,8.27967 20.32174,8.26443 20.06486,8.24287 19.80725,8.22354 19.40773,8.37967 18.90508,8.60643 18.3793,8.85461 12.98204,11.52775 9.11718,16.82758 8.45526,23.0831 8.45106,23.12319 8.44701,23.16257 8.44325,23.20044 h 0.03568 z"
       id="path4589"
       style="fill:#fbcb6b;fill-opacity:1" /></g><g
     id="g4599"
     style="fill:#fffdfa;fill-opacity:1"><path
       class="st0"
       d="m 43.1653,18.59091 c 0.13934,0.36578 0.25964,0.73999 0.37549,1.1167 5.78375,2.47046 4.88995,6.09327 -2.71265,8.27003 -8.66602,2.48114 -22.81134,2.48114 -31.53399,6e-5 -8.72272,-2.48114 -8.7688,-6.76728 -0.10284,-9.24842 0.11139,-0.03192 0.2337,-0.05865 0.34686,-0.08972 0.11548,-0.30579 0.2442,-0.60468 0.37561,-0.90228 -0.77399,0.17322 -1.5285,0.35657 -2.24005,0.5603 -9.50134,2.72034 -9.45081,7.14203 0.11267,9.8623 9.5567,2.71838 25.05798,2.72028 34.55933,-6e-5 9.1654,-2.62414 9.40856,-6.83453 0.81957,-9.56891 z"
       id="path4597"
       style="fill:#fffdfa;fill-opacity:1" /></g><g
     id="g4603"
     style="fill:#fffdfa;fill-opacity:1"><path
       class="st0"
       d="m 40.67619,35.86446 c -0.06451,0.09003 -0.1225,0.18561 -0.18866,0.27423 1.11182,4.21216 -2.15015,5.31763 -8.36176,2.18274 C 24.07841,34.26003 13.69218,24.65706 8.9719,16.91372 4.25169,9.17025 7.20908,6.15298 15.25651,10.21438 c 0.15723,0.07941 0.31903,0.16992 0.4798,0.25787 0.23401,-0.17181 0.47485,-0.33435 0.71723,-0.49487 C 15.77007,9.57919 15.09313,9.19918 14.43529,8.86715 5.61216,4.41432 2.64744,7.69527 7.82267,16.18501 c 5.17163,8.48383 16.55212,19.00873 25.37524,23.46155 7.79724,3.93512 11.00488,1.81189 8.06903,-4.59729 -0.18871,0.27838 -0.3872,0.54816 -0.59075,0.81519 z"
       id="path4601"
       style="fill:#fffdfa;fill-opacity:1" /></g><g
     id="g4607"
     style="fill:#fffdfa;fill-opacity:1"><path
       class="st0"
       d="m 26.99947,6.30203 c -0.20709,0.2179 -0.40997,0.46021 -0.61456,0.69336 0.50403,7.3e-4 1.00043,0.03119 1.49286,0.07532 5.67785,-5.26929 10.37776,-2.38657 10.19105,6.54427 -0.19666,9.40735 -5.33673,22.30023 -11.45862,28.742 -5.47168,5.75757 -10.25025,4.12601 -10.98951,-2.93533 -0.40723,-0.30334 -0.80243,-0.62128 -1.18219,-0.95715 0.02301,9.75769 5.21436,12.13861 11.77905,5.23083 C 32.92482,36.63765 38.55989,22.51003 38.77553,12.19594 38.99105,1.88913 33.70662,-0.75564 26.99947,6.30203 Z"
       id="path4605"
       style="fill:#fffdfa;fill-opacity:1" /></g><g
     id="g4611"
     style="fill:#fffdfa;fill-opacity:1"><path
       class="st0"
       d="m 41.00759,14.5784 c 0.21735,0.30579 0.42584,0.61737 0.62421,0.93689 5.44904,0.18713 5.88066,3.57747 0.22544,8.23952 C 35.1742,29.26421 22.7124,34.6892 14.0763,35.84868 6.19098,36.90733 4.06106,33.89121 8.8583,29.19241 8.78066,28.86978 8.71603,28.54263 8.65609,28.21341 c -7.03711,5.92145 -5.24493,9.69849 4.11481,8.44184 9.46185,-1.27032 23.11896,-7.21362 30.44617,-13.25409 6.86748,-5.66144 5.76098,-9.4253 -2.20948,-8.82276 z"
       id="path4609"
       style="fill:#fffdfa;fill-opacity:1" /></g></svg>
